solid ASCII
  facet normal 0.000000e+00 -1.000000e+00 0.000000e+00
    outer loop
      vertex   -1.052500e+02 1.102500e+02 6.000000e+01
      vertex   1.052500e+02 1.102500e+02 6.000000e+01
      vertex   -1.052500e+02 1.102500e+02 7.000000e+01
    endloop
  endfacet
  facet normal 0.000000e+00 -1.000000e+00 0.000000e+00
    outer loop
      vertex   -1.052500e+02 1.102500e+02 7.000000e+01
      vertex   1.052500e+02 1.102500e+02 6.000000e+01
      vertex   1.052500e+02 1.102500e+02 7.000000e+01
    endloop
  endfacet
  facet normal -1.000000e+00 0.000000e+00 0.000000e+00
    outer loop
      vertex   1.052500e+02 1.102500e+02 6.000000e+01
      vertex   1.052500e+02 -6.025000e+01 6.000000e+01
      vertex   1.052500e+02 1.102500e+02 7.000000e+01
    endloop
  endfacet
  facet normal -1.000000e+00 -0.000000e+00 0.000000e+00
    outer loop
      vertex   1.052500e+02 1.102500e+02 7.000000e+01
      vertex   1.052500e+02 -6.025000e+01 6.000000e+01
      vertex   1.052500e+02 -6.025000e+01 7.000000e+01
    endloop
  endfacet
  facet normal 0.000000e+00 1.000000e+00 -0.000000e+00
    outer loop
      vertex   1.052500e+02 -6.025000e+01 6.000000e+01
      vertex   -1.052500e+02 -6.025000e+01 6.000000e+01
      vertex   1.052500e+02 -6.025000e+01 7.000000e+01
    endloop
  endfacet
  facet normal 0.000000e+00 1.000000e+00 0.000000e+00
    outer loop
      vertex   1.052500e+02 -6.025000e+01 7.000000e+01
      vertex   -1.052500e+02 -6.025000e+01 6.000000e+01
      vertex   -1.052500e+02 -6.025000e+01 7.000000e+01
    endloop
  endfacet
  facet normal 1.000000e+00 0.000000e+00 0.000000e+00
    outer loop
      vertex   -1.052500e+02 -6.025000e+01 6.000000e+01
      vertex   -1.052500e+02 1.102500e+02 6.000000e+01
      vertex   -1.052500e+02 -6.025000e+01 7.000000e+01
    endloop
  endfacet
  facet normal 1.000000e+00 -0.000000e+00 0.000000e+00
    outer loop
      vertex   -1.052500e+02 -6.025000e+01 7.000000e+01
      vertex   -1.052500e+02 1.102500e+02 6.000000e+01
      vertex   -1.052500e+02 1.102500e+02 7.000000e+01
    endloop
  endfacet
  facet normal 0.000000e+00 0.000000e+00 -1.000000e+00
    outer loop
      vertex   1.052500e+02 1.102500e+02 6.000000e+01
      vertex   1.072500e+02 -6.225000e+01 6.000000e+01
      vertex   1.052500e+02 -6.025000e+01 6.000000e+01
    endloop
  endfacet
  facet normal 0.000000e+00 -0.000000e+00 -1.000000e+00
    outer loop
      vertex   1.052500e+02 -6.025000e+01 6.000000e+01
      vertex   1.072500e+02 -6.225000e+01 6.000000e+01
      vertex   -1.072500e+02 -6.225000e+01 6.000000e+01
    endloop
  endfacet
  facet normal -0.000000e+00 0.000000e+00 -1.000000e+00
    outer loop
      vertex   1.052500e+02 -6.025000e+01 6.000000e+01
      vertex   -1.072500e+02 -6.225000e+01 6.000000e+01
      vertex   -1.052500e+02 -6.025000e+01 6.000000e+01
    endloop
  endfacet
  facet normal -0.000000e+00 0.000000e+00 -1.000000e+00
    outer loop
      vertex   -1.052500e+02 -6.025000e+01 6.000000e+01
      vertex   -1.072500e+02 -6.225000e+01 6.000000e+01
      vertex   -1.052500e+02 1.102500e+02 6.000000e+01
    endloop
  endfacet
  facet normal -0.000000e+00 0.000000e+00 -1.000000e+00
    outer loop
      vertex   -1.052500e+02 1.102500e+02 6.000000e+01
      vertex   -1.072500e+02 -6.225000e+01 6.000000e+01
      vertex   -1.072500e+02 1.122500e+02 6.000000e+01
    endloop
  endfacet
  facet normal 0.000000e+00 0.000000e+00 -1.000000e+00
    outer loop
      vertex   -1.052500e+02 1.102500e+02 6.000000e+01
      vertex   -1.072500e+02 1.122500e+02 6.000000e+01
      vertex   1.072500e+02 1.122500e+02 6.000000e+01
    endloop
  endfacet
  facet normal 0.000000e+00 0.000000e+00 -1.000000e+00
    outer loop
      vertex   1.072500e+02 -6.225000e+01 6.000000e+01
      vertex   1.052500e+02 1.102500e+02 6.000000e+01
      vertex   1.072500e+02 1.122500e+02 6.000000e+01
    endloop
  endfacet
  facet normal 0.000000e+00 0.000000e+00 -1.000000e+00
    outer loop
      vertex   1.072500e+02 1.122500e+02 6.000000e+01
      vertex   1.052500e+02 1.102500e+02 6.000000e+01
      vertex   -1.052500e+02 1.102500e+02 6.000000e+01
    endloop
  endfacet
  facet normal -0.000000e+00 -1.000000e+00 -0.000000e+00
    outer loop
      vertex   1.072500e+02 -6.225000e+01 7.300000e+01
      vertex   -1.072500e+02 -6.225000e+01 7.300000e+01
      vertex   1.072500e+02 -6.225000e+01 6.000000e+01
    endloop
  endfacet
  facet normal 0.000000e+00 -1.000000e+00 0.000000e+00
    outer loop
      vertex   1.072500e+02 -6.225000e+01 6.000000e+01
      vertex   -1.072500e+02 -6.225000e+01 7.300000e+01
      vertex   -1.072500e+02 -6.225000e+01 6.000000e+01
    endloop
  endfacet
  facet normal -1.000000e+00 0.000000e+00 0.000000e+00
    outer loop
      vertex   -1.072500e+02 -6.225000e+01 7.300000e+01
      vertex   -1.072500e+02 1.122500e+02 7.300000e+01
      vertex   -1.072500e+02 -6.225000e+01 6.000000e+01
    endloop
  endfacet
  facet normal -1.000000e+00 0.000000e+00 0.000000e+00
    outer loop
      vertex   -1.072500e+02 -6.225000e+01 6.000000e+01
      vertex   -1.072500e+02 1.122500e+02 7.300000e+01
      vertex   -1.072500e+02 1.122500e+02 6.000000e+01
    endloop
  endfacet
  facet normal -0.000000e+00 1.000000e+00 0.000000e+00
    outer loop
      vertex   -1.072500e+02 1.122500e+02 7.300000e+01
      vertex   1.072500e+02 1.122500e+02 7.300000e+01
      vertex   -1.072500e+02 1.122500e+02 6.000000e+01
    endloop
  endfacet
  facet normal 0.000000e+00 1.000000e+00 0.000000e+00
    outer loop
      vertex   -1.072500e+02 1.122500e+02 6.000000e+01
      vertex   1.072500e+02 1.122500e+02 7.300000e+01
      vertex   1.072500e+02 1.122500e+02 6.000000e+01
    endloop
  endfacet
  facet normal 1.000000e+00 0.000000e+00 0.000000e+00
    outer loop
      vertex   1.072500e+02 1.122500e+02 7.300000e+01
      vertex   1.072500e+02 -6.225000e+01 7.300000e+01
      vertex   1.072500e+02 1.122500e+02 6.000000e+01
    endloop
  endfacet
  facet normal 1.000000e+00 0.000000e+00 0.000000e+00
    outer loop
      vertex   1.072500e+02 1.122500e+02 6.000000e+01
      vertex   1.072500e+02 -6.225000e+01 7.300000e+01
      vertex   1.072500e+02 -6.225000e+01 6.000000e+01
    endloop
  endfacet
  facet normal 0.000000e+00 0.000000e+00 -1.000000e+00
    outer loop
      vertex   -1.052500e+02 1.102500e+02 7.000000e+01
      vertex   1.052500e+02 1.102500e+02 7.000000e+01
      vertex   -1.052500e+02 -6.025000e+01 7.000000e+01
    endloop
  endfacet
  facet normal 0.000000e+00 0.000000e+00 -1.000000e+00
    outer loop
      vertex   -1.052500e+02 -6.025000e+01 7.000000e+01
      vertex   1.052500e+02 1.102500e+02 7.000000e+01
      vertex   1.052500e+02 -6.025000e+01 7.000000e+01
    endloop
  endfacet
  facet normal 0.000000e+00 0.000000e+00 1.000000e+00
    outer loop
      vertex   1.072500e+02 1.122500e+02 7.300000e+01
      vertex   -1.072500e+02 1.122500e+02 7.300000e+01
      vertex   1.072500e+02 -6.225000e+01 7.300000e+01
    endloop
  endfacet
  facet normal 0.000000e+00 0.000000e+00 1.000000e+00
    outer loop
      vertex   1.072500e+02 -6.225000e+01 7.300000e+01
      vertex   -1.072500e+02 1.122500e+02 7.300000e+01
      vertex   -1.072500e+02 -6.225000e+01 7.300000e+01
    endloop
  endfacet
endsolid
